<?xml version="1.0" encoding="UTF-8"?>
<svg xmlns="http://www.w3.org/2000/svg" xmlns:xlink="http://www.w3.org/1999/xlink" width="768pt" height="767.999994pt" viewBox="0 0 768 767.999994" version="1.2">
<g id="surface1">
<path style=" stroke:none;fill-rule:nonzero;fill:rgb(100%,100%,100%);fill-opacity:1;" d="M 384 0 C 172.378906 0 0 172.378906 0 384 C 0 595.621094 172.378906 768 384 768 C 595.621094 768 768 595.621094 768 384 C 768 172.378906 595.621094 0 384 0 Z M 384 76.800781 C 554.117188 76.800781 691.199219 213.882812 691.199219 384 C 691.199219 554.117188 554.117188 691.199219 384 691.199219 C 213.882812 691.199219 76.800781 554.117188 76.800781 384 C 76.800781 213.882812 213.882812 76.800781 384 76.800781 Z M 384 192.226562 C 334.78125 192.226562 285.578125 210.921875 248.25 248.25 C 173.59375 322.910156 173.59375 445.089844 248.25 519.75 C 322.90625 594.40625 445.089844 594.40625 519.75 519.75 L 465.449219 465.449219 C 420.148438 510.753906 347.851562 510.753906 302.550781 465.449219 C 257.246094 420.148438 257.246094 347.851562 302.550781 302.550781 C 347.851562 257.246094 420.148438 257.246094 465.449219 302.550781 L 519.75 248.25 C 482.421875 210.921875 433.21875 192.226562 384 192.226562 Z M 384 192.226562 "/>
</g>
</svg>
