<?xml version="1.0" encoding="UTF-8"?>
<svg xmlns="http://www.w3.org/2000/svg" xmlns:xlink="http://www.w3.org/1999/xlink" width="768pt" height="767.999994pt" viewBox="0 0 768 767.999994" version="1.2">
<defs>
<clipPath id="clip1">
  <path d="M 11 52 L 757 52 L 757 718.441406 L 11 718.441406 Z M 11 52 "/>
</clipPath>
</defs>
<g id="surface1">
<path style=" stroke:none;fill-rule:nonzero;fill:rgb(100%,100%,100%);fill-opacity:1;" d="M 569.5625 57.675781 C 454.773438 49.355469 384.003906 148.0625 384.003906 148.0625 C 384.003906 148.0625 313.238281 49.355469 198.445312 57.675781 C 83.675781 66.007812 1.324219 146.476562 18.082031 286.691406 C 42.628906 492.355469 362.300781 713.542969 384.003906 713.542969 C 405.710938 713.542969 725.378906 492.355469 749.929688 286.691406 C 766.671875 146.476562 684.34375 66.007812 569.5625 57.675781 "/>
<g clip-path="url(#clip1)" clip-rule="nonzero">
<path style=" stroke:none;fill-rule:nonzero;fill:rgb(100%,100%,100%);fill-opacity:1;" d="M 569.5625 57.675781 L 569.910156 52.960938 C 565.144531 52.617188 560.453125 52.445312 555.835938 52.445312 C 501.113281 52.457031 457.183594 75.746094 427.046875 98.863281 C 396.882812 122.003906 380.347656 145.058594 380.164062 145.304688 L 384.003906 148.0625 L 387.847656 145.304688 C 387.660156 145.058594 371.128906 122.003906 340.964844 98.863281 C 310.824219 75.746094 266.886719 52.457031 212.160156 52.445312 C 207.554688 52.445312 202.867188 52.617188 198.101562 52.960938 C 144.804688 56.824219 98.007812 76.039062 64.53125 109.65625 C 31.046875 143.273438 11.148438 191.207031 11.1875 251.4375 C 11.1875 262.921875 11.902344 274.863281 13.378906 287.257812 C 19.667969 339.769531 44.636719 392.75 78.652344 442.796875 C 129.699219 517.875 201.265625 586.4375 262.15625 636.363281 C 292.617188 661.328125 320.402344 681.613281 341.664062 695.71875 C 352.300781 702.761719 361.300781 708.261719 368.269531 712.054688 C 371.753906 713.960938 374.722656 715.425781 377.222656 716.472656 C 378.476562 716.988281 379.597656 717.410156 380.679688 717.730469 C 381.765625 718.023438 382.75 718.257812 384.003906 718.269531 C 385.65625 718.246094 386.910156 717.875 388.425781 717.371094 C 391.28125 716.386719 394.839844 714.699219 399.308594 712.289062 C 415.929688 703.289062 444.761719 684.183594 479.308594 657.5 C 531.089844 617.480469 595.503906 560.5625 649.21875 495.890625 C 702.898438 431.203125 746.039062 358.800781 754.632812 287.246094 C 756.109375 274.863281 756.824219 262.921875 756.824219 251.4375 C 756.847656 191.207031 736.964844 143.273438 703.476562 109.65625 C 670 76.027344 623.207031 56.824219 569.910156 52.960938 L 569.21875 62.390625 C 620.707031 66.132812 665.175781 84.582031 696.78125 116.328125 C 728.359375 148.085938 747.34375 193.238281 747.367188 251.4375 C 747.367188 262.527344 746.679688 274.097656 745.238281 286.125 C 739.253906 336.433594 715.050781 388.230469 681.539062 437.492188 C 631.308594 511.398438 560.28125 579.53125 499.855469 629.050781 C 469.644531 653.816406 442.066406 673.945312 421.113281 687.839844 C 410.648438 694.773438 401.820312 700.164062 395.207031 703.757812 C 391.921875 705.554688 389.175781 706.894531 387.132812 707.746094 C 386.121094 708.175781 385.285156 708.472656 384.695312 708.644531 C 384.410156 708.730469 384.175781 708.78125 384.054688 708.804688 L 383.929688 708.816406 L 384.003906 709.503906 L 384.003906 708.816406 L 383.929688 708.816406 L 384.003906 709.503906 L 384.003906 708.816406 L 384.003906 709.789062 L 384.066406 708.816406 L 384.003906 708.816406 L 384.003906 709.789062 L 384.066406 708.816406 L 383.957031 708.804688 C 383.597656 708.742188 382.652344 708.472656 381.40625 707.96875 C 378.980469 707.007812 375.375 705.222656 370.90625 702.710938 C 354.089844 693.308594 325.058594 673.859375 290.867188 647.207031 C 239.527344 607.226562 176.40625 550.949219 124.207031 487.605469 C 71.96875 424.285156 30.8125 353.863281 22.773438 286.125 C 21.332031 274.097656 20.640625 262.527344 20.640625 251.4375 C 20.667969 193.238281 39.652344 148.101562 71.230469 116.328125 C 102.835938 84.582031 147.304688 66.132812 198.789062 62.390625 C 203.320312 62.058594 207.777344 61.898438 212.160156 61.898438 C 264.113281 61.898438 306.097656 84.042969 335.214844 106.371094 C 349.753906 117.523438 361.042969 128.6875 368.664062 137.046875 C 372.46875 141.21875 375.375 144.691406 377.308594 147.101562 C 378.269531 148.320312 378.992188 149.257812 379.472656 149.882812 C 379.707031 150.203125 379.894531 150.4375 380.003906 150.597656 L 380.125 150.769531 L 380.164062 150.820312 C 381.039062 152.050781 382.492188 152.789062 384.003906 152.789062 C 385.519531 152.789062 386.960938 152.050781 387.847656 150.820312 L 387.871094 150.769531 C 388.695312 149.636719 405.132812 127.261719 434.164062 105.324219 C 463.21875 83.351562 504.695312 61.898438 555.835938 61.898438 C 560.230469 61.898438 564.6875 62.058594 569.21875 62.390625 L 569.5625 57.675781 "/>
</g>
</g>
</svg>
